<?xml version='1.0' encoding='utf-8'?>
<svg xmlns="http://www.w3.org/2000/svg" version="1.1" width="488" height="242" viewBox="0 0 488 242" preserveAspectRatio="xMidYMid meet">
<style type="text/css" id="sharp-precision-style">
* {
  shape-rendering: geometricPrecision;
  text-rendering: geometricPrecision;
  image-rendering: optimizeQuality;
}
/* Keep strokes crisp when scaling */
*[stroke] {
  vector-effect: non-scaling-stroke;
  stroke-miterlimit: 10;
}
</style><path d="M0 0 C3.85723684 3.29276316 3.85723684 3.29276316 5.5625 5.1875 C6.2225 4.8575 6.8825 4.5275 7.5625 4.1875 C10.75 3.625 10.75 3.625 14.5625 4.1875 C18.37182088 7.38574232 21.11774538 11.36681137 23.625 15.625 C25.38030189 18.3966298 25.38030189 18.3966298 28.4375 19.375 C32.70013634 19.11924182 34.81145129 17.23356734 37.5625 14.1875 C39.35047578 11.91146785 40.95434243 9.59973635 42.5625 7.1875 C44.5425 7.5175 46.5225 7.8475 48.5625 8.1875 C49.69982426 11.59151948 49.40239957 13.96206664 48.625 17.4375 C48.33302734 18.77554688 48.33302734 18.77554688 48.03515625 20.140625 C47.87917969 20.81609375 47.72320312 21.4915625 47.5625 22.1875 C52.26395832 19.73571146 55.50761708 16.40889077 59.125 12.625 C60.24640608 11.45232964 61.37256995 10.28418685 62.50390625 9.12109375 C62.99576416 8.60603271 63.48762207 8.09097168 63.99438477 7.56030273 C67.55156941 4.44617394 70.80833585 3.72502319 75.55078125 3.8828125 C80.80325993 4.67833354 83.82221274 8.39994314 87.0625 12.25 C89.92396134 15.62086435 92.24551915 17.80974015 96.5625 19.1875 C99.58893583 19.58723055 99.58893583 19.58723055 102.5625 18.1875 C104.53016082 16.29972285 106.2429129 14.32133037 107.94921875 12.1953125 C109.39559494 10.39522203 110.8992741 8.78540283 112.5625 7.1875 C114.2125 7.8475 115.8625 8.5075 117.5625 9.1875 C117.98106555 12.61604432 117.75267114 13.91646549 115.734375 16.79296875 C114.93515625 17.64503906 114.1359375 18.49710938 113.3125 19.375 C112.52359375 20.23480469 111.7346875 21.09460938 110.921875 21.98046875 C107.4812036 25.1989776 105.51066431 26.09268357 100.8125 26.5625 C92.75613019 26.25092769 88.21440981 22.06624182 82.875 16.375 C82.42342529 15.85832764 81.97185059 15.34165527 81.5065918 14.80932617 C79.4336012 12.54466666 78.2324656 11.238545 75.1015625 11 C71.57370695 12.64995091 69.22451975 15.18080252 66.625 18 C56.95987746 28.33856333 56.95987746 28.33856333 50.5 29.1875 C46.5625 29.1875 46.5625 29.1875 43.5625 27.375 C41.5625 25.1875 41.5625 25.1875 41.5625 23.1875 C40.0465625 23.93 40.0465625 23.93 38.5 24.6875 C33.27196822 26.88159366 28.77805189 26.92974135 23.5 24.8125 C18.41922015 22.07898101 15.91341822 17.29896613 13.5625 12.1875 C13.5625 11.5275 13.5625 10.8675 13.5625 10.1875 C10.17530732 12.09902234 7.17165826 14.24507151 4.16064453 16.70385742 C-11.61100093 29.49512931 -11.61100093 29.49512931 -21.13671875 28.9921875 C-25.18093507 28.00626021 -26.78571713 26.32142521 -29.4375 23.1875 C-30.2625 23.6825 -31.0875 24.1775 -31.9375 24.6875 C-35.91458457 26.39196482 -39.20380526 26.94613894 -43.4375 26.1875 C-46.90872899 24.74058851 -49.7658736 22.8591264 -52.4375 20.1875 C-55.31655542 20.58541823 -57.07389746 21.53017556 -59.6875 22.9375 C-64.48744786 25.42367337 -69.55333409 26.89487751 -74.71386719 28.43652344 C-77.58804579 29.29529738 -80.37643241 30.16112588 -83.1328125 31.3515625 C-85.73707423 32.29615913 -87.39427036 32.28985221 -90.125 31.9375 C-90.89199219 31.84984375 -91.65898437 31.7621875 -92.44921875 31.671875 C-94.4375 31.1875 -94.4375 31.1875 -96.4375 29.1875 C-96.3125 27.1875 -96.3125 27.1875 -95.4375 25.1875 C-92.85948814 23.22821099 -90.44100787 23.06800427 -87.3125 22.8125 C-83.50354621 22.60647782 -83.50354621 22.60647782 -81.875 20.5 C-81.27633164 17.3356101 -81.45541011 15.26471499 -82.4375 12.1875 C-85.45264183 9.4384001 -87.02969818 9.1805881 -91.125 9.25 C-94.39223443 9.85123092 -94.39223443 9.85123092 -95.8125 11.75 C-97.52214491 18.41761516 -97.69423034 25.40289873 -98 32.25 C-98.0626001 33.64351685 -98.0626001 33.64351685 -98.12646484 35.06518555 C-98.45304973 42.77858731 -98.61502278 50.46784445 -98.4375 58.1875 C-98.41961426 59.06776855 -98.40172852 59.94803711 -98.38330078 60.85498047 C-98.08680675 73.80765773 -97.13212783 86.35368524 -94.81494141 99.10253906 C-94.23381501 102.31264221 -93.7055274 105.52906771 -93.1875 108.75 C-93.01734375 109.76191406 -92.8471875 110.77382812 -92.671875 111.81640625 C-92.4375 114.1875 -92.4375 114.1875 -93.4375 116.1875 C-96.61752912 115.92249757 -98.17972713 115.40844818 -100.625 113.3125 C-105.67473834 104.60605459 -105.18532372 92.38746875 -106.06994629 82.51556396 C-106.48598674 77.87913133 -106.91845978 73.24424054 -107.3515625 68.609375 C-107.4395813 67.6654892 -107.5276001 66.72160339 -107.61828613 65.74911499 C-108.54995166 55.84367835 -109.60443383 45.95237826 -110.6875 36.0625 C-110.77626404 35.25097473 -110.86502808 34.43944946 -110.95648193 33.60333252 C-111.44635574 29.13096398 -111.94004104 24.6590322 -112.4375 20.1875 C-113.14326172 20.71150391 -113.14326172 20.71150391 -113.86328125 21.24609375 C-114.48589844 21.70113281 -115.10851562 22.15617187 -115.75 22.625 C-116.36488281 23.07746094 -116.97976562 23.52992188 -117.61328125 23.99609375 C-121.48762011 26.52644354 -124.92785823 26.55118079 -129.4375 26.1875 C-136.40409563 24.30601067 -140.69865081 20.36211803 -145.4921875 15.11328125 C-147.37924659 12.96097602 -147.37924659 12.96097602 -150.4375 12.1875 C-158.08740289 14.42971291 -164.66327082 18.2871695 -170.1875 24.0625 C-172.4375 26.1875 -172.4375 26.1875 -175.125 26.625 C-177.4375 26.1875 -177.4375 26.1875 -179.4375 24.1875 C-179.58267744 21.2781442 -179.62380796 18.467554 -179.5625 15.5625 C-179.55347656 14.76070312 -179.54445312 13.95890625 -179.53515625 13.1328125 C-179.51156223 11.15091477 -179.47569065 9.16917019 -179.4375 7.1875 C-180.015 7.64125 -180.5925 8.095 -181.1875 8.5625 C-183.4375 10.1875 -183.4375 10.1875 -185.38256836 11.07617188 C-187.67696336 12.31700425 -188.90169697 13.59705574 -190.56640625 15.59375 C-191.40655273 16.58568359 -191.40655273 16.58568359 -192.26367188 17.59765625 C-192.83666016 18.28730469 -193.40964844 18.97695312 -194 19.6875 C-195.14376666 21.05490819 -196.29077981 22.41960903 -197.44140625 23.78125 C-197.94486572 24.38646484 -198.4483252 24.99167969 -198.96704102 25.61523438 C-200.4375 27.1875 -200.4375 27.1875 -203.4375 29.1875 C-207.05784895 29.0334426 -208.91648897 28.60994138 -211.75 26.3125 C-214.82255875 22.44335195 -214.7518023 18.98061007 -214.4375 14.1875 C-213.60470631 11.41797679 -212.56287421 8.86026376 -211.4375 6.1875 C-209.0625 6.4375 -209.0625 6.4375 -206.4375 7.1875 C-204.36537002 10.24116524 -204.28460631 12.34782294 -204.8125 15.9375 C-204.97878906 17.13632813 -204.97878906 17.13632813 -205.1484375 18.359375 C-205.24382812 18.96265625 -205.33921875 19.5659375 -205.4375 20.1875 C-205.01339844 19.61902344 -204.58929688 19.05054688 -204.15234375 18.46484375 C-192.89804939 3.64875073 -192.89804939 3.64875073 -184.4375 1.1875 C-180.76430706 1.26096386 -178.84516627 1.9466063 -175.6875 3.8125 C-172.90382803 6.75082042 -172.26574984 9.27213712 -171.4375 13.1875 C-170.52871094 12.57261719 -170.52871094 12.57261719 -169.6015625 11.9453125 C-163.78139278 8.20249567 -158.46770059 5.4019807 -151.4375 5.1875 C-145.17032147 6.61685651 -141.90450393 10.45030615 -137.6484375 15.12890625 C-134.42922952 18.12629602 -131.82543619 19.21641534 -127.4375 19.125 C-123.10659855 17.7715933 -120.83072293 15.14250637 -118.2265625 11.48828125 C-117 9.8125 -117 9.8125 -114.4375 7.1875 C-111.3125 7.0625 -111.3125 7.0625 -108.4375 8.1875 C-106.5625 10.25 -106.5625 10.25 -105.4375 12.1875 C-105.004375 11.259375 -104.57125 10.33125 -104.125 9.375 C-101.97139359 5.30707679 -100.80355815 3.64285272 -96.4375 2.1875 C-88.9844795 1.44219795 -83.29152205 3.89187357 -77.5625 8.5 C-75.0753828 11.64547176 -73.83291551 14.441911 -72.4375 18.1875 C-65.55463388 17.53198894 -61.4849624 14.56589536 -57.0625 9.4375 C-56.1799363 8.36031969 -55.30218305 7.2790857 -54.4375 6.1875 C-52.0625 6.4375 -52.0625 6.4375 -49.4375 7.1875 C-47.69360639 9.54175637 -47.40258412 11.40572427 -46.9375 14.3125 C-46.70063679 17.30802548 -46.70063679 17.30802548 -44.4375 19.1875 C-38.98002374 19.1875 -36.04830199 17.64247097 -32.19140625 14.0703125 C-30.26185697 11.99894779 -28.57442281 9.82590709 -26.875 7.5625 C-20.46528386 -0.97420714 -10.08633538 -5.31824956 0 0 Z M-20.4375 12.1875 C-21.35442961 14.93828884 -21.54636083 16.54698913 -21.5 19.375 C-21.479375 20.633125 -21.45875 21.89125 -21.4375 23.1875 C-13.57057782 20.17463618 -6.88121734 15.59190809 -0.4375 10.1875 C-0.81654208 6.89674004 -0.81654208 6.89674004 -2.4375 4.1875 C-10.52063088 3.50248891 -15.05557177 6.00824907 -20.4375 12.1875 Z " fill="#EAEAEA" transform="translate(342.4375,115.8125)" />
<path d="M0 0 C1.22009766 -0.020625 2.44019531 -0.04125 3.69726562 -0.0625 C12.21734352 -0.09912581 19.95013483 0.42508988 27.1875 5.25 C27.1875 6.57 27.1875 7.89 27.1875 9.25 C21.5303562 10.43491405 15.95995915 10.43661128 10.20703125 10.49609375 C8.05272989 10.52900475 5.89843312 10.56221682 3.74414062 10.59570312 C0.36013661 10.64326796 -3.0238453 10.68777503 -6.40795898 10.72680664 C-9.68231352 10.76640525 -12.9563101 10.81794566 -16.23046875 10.87109375 C-17.75392159 10.88371498 -17.75392159 10.88371498 -19.30815125 10.89659119 C-20.72025627 10.92155418 -20.72025627 10.92155418 -22.16088867 10.94702148 C-22.98884445 10.95732895 -23.81680023 10.96763641 -24.66984558 10.97825623 C-27.10913704 11.12593194 -27.10913704 11.12593194 -29.8125 13.25 C-30.137435 16.05422022 -30.24839044 18.58063332 -30.203125 21.38671875 C-30.19524963 22.22700119 -30.18737427 23.06728363 -30.17926025 23.93302917 C-29.93590626 34.75653789 -28.21224099 45.38226534 -26.5625 56.0625 C-26.23849951 58.22966464 -25.91608575 60.39706705 -25.59521484 62.56469727 C-24.96284826 66.8338618 -24.32548941 71.10222893 -23.68457031 75.37011719 C-22.52555209 83.1325594 -21.46538134 90.90675884 -20.4375 98.6875 C-20.28249023 99.84419189 -20.12748047 101.00088379 -19.96777344 102.19262695 C-19.56861529 105.21018069 -19.18631209 108.22921575 -18.8125 111.25 C-18.7101001 112.0229541 -18.6077002 112.7959082 -18.50219727 113.59228516 C-17.56848092 121.44959629 -17.55525347 129.34824608 -17.51733398 137.25097656 C-17.50587674 138.90275685 -17.48552536 140.55450196 -17.45581055 142.20605469 C-17.14853801 159.37898483 -19.07351282 175.64151923 -28.8125 190.25 C-27.50539062 190.22679687 -26.19828125 190.20359375 -24.8515625 190.1796875 C-8.07525482 189.97263113 8.91098975 190.77843125 25.1875 195.25 C25.8475 195.91 26.5075 196.57 27.1875 197.25 C26.8125 199.375 26.8125 199.375 26.1875 201.25 C25.34493652 201.12882813 24.50237305 201.00765625 23.63427734 200.8828125 C8.00432685 198.68468559 -7.51189554 196.84522022 -23.3125 196.75 C-24.53791504 196.73195312 -25.76333008 196.71390625 -27.02587891 196.6953125 C-33.37527379 196.73776562 -38.28207972 197.2893608 -43.92773438 200.29492188 C-48.60440224 202.66475668 -53.43424772 202.49965377 -58.5625 202.5625 C-59.3359375 202.59150391 -60.109375 202.62050781 -60.90625 202.65039062 C-66.70650795 202.71364847 -70.94383152 201.43341659 -75.8125 198.25 C-76.4725 197.59 -77.1325 196.93 -77.8125 196.25 C-77.4375 194.125 -77.4375 194.125 -76.8125 192.25 C-71.93912356 190.67076944 -67.95281893 190.03181738 -62.77734375 190.1171875 C-61.47345703 190.11460937 -60.16957031 190.11203125 -58.82617188 190.109375 C-56.78233216 190.11134189 -54.7413581 190.1251933 -52.69799805 190.17089844 C-44.68486988 190.59365933 -44.68486988 190.59365933 -37.62036133 187.54296875 C-36.07050054 185.50195324 -34.91949235 183.55632405 -33.8125 181.25 C-33.08376723 179.99974699 -32.35466876 178.74970698 -31.625 177.5 C-26.16999597 165.9535748 -25.61952803 153.15690973 -25.5625 140.625 C-25.541875 139.57699219 -25.52125 138.52898437 -25.5 137.44921875 C-25.38794416 112.88097553 -29.66385004 88.19860609 -33.4375 64 C-34.0524168 60.02519724 -34.66305775 56.04974823 -35.27206421 52.07403564 C-35.64611262 49.63599403 -36.02319161 47.19841453 -36.40396118 44.76141357 C-37.76630292 35.93915797 -38.9589948 27.19183817 -38.9375 18.25 C-38.94007812 17.156875 -38.94265625 16.06375 -38.9453125 14.9375 C-38.8125 12.25 -38.8125 12.25 -37.8125 10.25 C-38.40496521 10.24191315 -38.99743042 10.23382629 -39.60784912 10.22549438 C-45.7723137 10.1394604 -51.9364563 10.03995716 -58.10058594 9.93261719 C-60.4013122 9.89432583 -62.70209835 9.85947326 -65.00292969 9.828125 C-68.30946262 9.7824783 -71.61558312 9.72448253 -74.921875 9.6640625 C-75.95117126 9.65251129 -76.98046753 9.64096008 -78.04095459 9.62905884 C-79.00164856 9.60918915 -79.96234253 9.58931946 -80.95214844 9.56884766 C-81.79598083 9.55552399 -82.63981323 9.54220032 -83.50921631 9.5284729 C-85.99704361 9.2276882 -87.65565599 8.49621362 -89.8125 7.25 C-89.8125 5.93 -89.8125 4.61 -89.8125 3.25 C-89.05130356 3.25444122 -88.29010712 3.25888245 -87.50584412 3.26345825 C-80.31183772 3.30362931 -73.11788617 3.33403218 -65.92379665 3.35362434 C-62.22576019 3.36403566 -58.52781686 3.37814603 -54.82983398 3.40087891 C-51.25718846 3.42270239 -47.6846322 3.43458855 -44.11192513 3.43975449 C-42.75285501 3.44343325 -41.39378945 3.45061678 -40.03475761 3.46146011 C-30.23625444 3.55127909 -30.23625444 3.55127909 -20.8125 1.25 C-13.93767337 -0.11273565 -6.98188873 0.02922821 0 0 Z " fill="#EAEAEA" transform="translate(128.8125,17.75)" />
<path d="M0 0 C1.32 0 2.64 0 4 0 C5.65 4.29 7.3 8.58 9 13 C10.8272911 10.25906335 11.93698178 7.86174676 13.125 4.8125 C13.47820312 3.91144531 13.83140625 3.01039063 14.1953125 2.08203125 C14.46085937 1.39496094 14.72640625 0.70789063 15 0 C16.32 0 17.64 0 19 0 C19 7.59 19 15.18 19 23 C18.01 23 17.02 23 16 23 C15.67 18.71 15.34 14.42 15 10 C14.401875 11.629375 13.80375 13.25875 13.1875 14.9375 C12.16796875 17.71484375 12.16796875 17.71484375 11 20 C10.01 20.33 9.02 20.66 8 21 C6.68 17.7 5.36 14.4 4 11 C3.67 14.96 3.34 18.92 3 23 C2.01 23 1.02 23 0 23 C0 15.41 0 7.82 0 0 Z " fill="#CECECE" transform="translate(318,153)" />
<path d="M0 0 C1.32 0 2.64 0 4 0 C4 2.97 4 5.94 4 9 C6.97 9 9.94 9 13 9 C13 6.03 13 3.06 13 0 C14.32 0 15.64 0 17 0 C17 7.59 17 15.18 17 23 C15.68 23 14.36 23 13 23 C13 19.37 13 15.74 13 12 C10.03 12 7.06 12 4 12 C4 15.63 4 19.26 4 23 C2.68 23 1.36 23 0 23 C0 15.41 0 7.82 0 0 Z " fill="#C8C8C8" transform="translate(262,153)" />
<path d="M0 0 C3.18773141 3.35120482 4.25637017 6.03425436 4.4375 10.5625 C4.25520182 14.42982569 3.50180366 16.94223997 1 20 C-2.69594074 22.46396049 -5.71107607 22.66716594 -10 22 C-13.42008821 19.92994661 -14.36697091 17.46159487 -15.4375 13.75 C-16.32386137 8.91094603 -15.73972563 5.12888228 -13 1 C-8.3645121 -2.58196792 -5.24199548 -2.42684976 0 0 Z M-10.875 4.0625 C-12.26515518 7.69234965 -12.48264967 10.13880265 -12 14 C-10.14283813 16.90809543 -10.14283813 16.90809543 -8 19 C-5.06556598 18.73343428 -5.06556598 18.73343428 -2 18 C0.69469307 13.95796039 0.53918165 10.74137511 0 6 C-0.91313108 3.36073536 -0.91313108 3.36073536 -3 2 C-6.75750701 1.29546744 -8.24989265 1.17488192 -10.875 4.0625 Z " fill="#CCCCCC" transform="translate(304,154)" />
<path d="M0 0 C4.62 0 9.24 0 14 0 C14 0.99 14 1.98 14 3 C10.7 3 7.4 3 4 3 C4 4.98 4 6.96 4 9 C6.64 9 9.28 9 12 9 C12 9.99 12 10.98 12 12 C9.36 12 6.72 12 4 12 C4 14.64 4 17.28 4 20 C7.3 20 10.6 20 14 20 C14 20.99 14 21.98 14 23 C9.38 23 4.76 23 0 23 C0 15.41 0 7.82 0 0 Z " fill="#CECECE" transform="translate(348,153)" />
<path d="M0 0 C0 1.32 0 2.64 0 4 C-2.64 3.67 -5.28 3.34 -8 3 C-7.80699819 4.9582834 -7.80699819 4.9582834 -7 7 C-5.17535037 8.09153462 -5.17535037 8.09153462 -3 8.8125 C-0.828125 9.80078125 -0.828125 9.80078125 1 11 C2.25 14.5 2.25 14.5 2 18 C0.5625 20.4375 0.5625 20.4375 -2 22 C-4.77963696 22.55137993 -7.22489431 22.59141597 -10 22 C-12.5 20 -12.5 20 -14 18 C-13.01 17.34 -12.02 16.68 -11 16 C-10.01 16.66 -9.02 17.32 -8 18 C-4.87478167 18.16699232 -4.87478167 18.16699232 -2 18 C-2.15726 16.06208803 -2.15726 16.06208803 -3 14 C-5.048101 12.65005454 -5.048101 12.65005454 -7.5 11.625 C-11.84673698 9.3754944 -11.84673698 9.3754944 -13.25 5.9375 C-12.96432628 2.58083381 -12.4085153 1.3224969 -10 -1 C-6.06329512 -2.31223496 -3.87511856 -1.24296256 0 0 Z " fill="#C8C8C8" transform="translate(384,154)" />
<path d="M0 0 C1.32 0 2.64 0 4 0 C5.17430074 3.2681432 6.33811256 6.53992515 7.5 9.8125 C8.00080078 11.2056543 8.00080078 11.2056543 8.51171875 12.62695312 C8.82753906 13.51962891 9.14335937 14.41230469 9.46875 15.33203125 C9.76201172 16.15421143 10.05527344 16.9763916 10.35742188 17.82348633 C11 20 11 20 11 23 C9.68 23 8.36 23 7 23 C6.34 21.02 5.68 19.04 5 17 C2.69 17 0.38 17 -2 17 C-2.66 18.98 -3.32 20.96 -4 23 C-5.32 22.67 -6.64 22.34 -8 22 C-6.85900371 18.51922791 -5.71139816 15.04067114 -4.5625 11.5625 C-4.07426758 10.07266602 -4.07426758 10.07266602 -3.57617188 8.55273438 C-3.10727539 7.13637695 -3.10727539 7.13637695 -2.62890625 5.69140625 C-2.34088135 4.81685791 -2.05285645 3.94230957 -1.75610352 3.04125977 C-1 1 -1 1 0 0 Z M1 4 C0.34 6.97 -0.32 9.94 -1 13 C0.65 13 2.3 13 4 13 C3.34 10.03 2.68 7.06 2 4 C1.67 4 1.34 4 1 4 Z " fill="#C9C9C9" transform="translate(422,153)" />
<path d="M0 0 C1.32 0 2.64 0 4 0 C5.32 2.97 6.64 5.94 8 9 C9.65 6.03 11.3 3.06 13 0 C14.32 0.33 15.64 0.66 17 1 C16.57847656 1.75023437 16.15695312 2.50046875 15.72265625 3.2734375 C12.15542519 9.93786447 10.03360711 15.4047929 10 23 C8.68 23 7.36 23 6 23 C5.98582031 22.39414063 5.97164063 21.78828125 5.95703125 21.1640625 C5.60309929 14.94633895 4.12555704 10.54170548 1.05859375 5.12890625 C0 3 0 3 0 0 Z " fill="#CBCBCB" transform="translate(438,153)" />
<path d="M0 0 C5.61 0 11.22 0 17 0 C17 0.99 17 1.98 17 3 C14.69 3 12.38 3 10 3 C10 9.6 10 16.2 10 23 C8.68 23 7.36 23 6 23 C6 16.4 6 9.8 6 3 C3.69 3 1.38 3 -1 3 C-0.67 2.01 -0.34 1.02 0 0 Z " fill="#C8C8C8" transform="translate(393,153)" />
<path d="M0 0 C0.86321499 2.69754683 0.97805016 4.61459549 0.875 7.5 C1.00762748 11.2135695 1.4835489 12.37869677 4 15 C7.71888239 14.49287967 10.73454239 13.88391785 14 12 C13.6875 14.375 13.6875 14.375 13 17 C9.30405926 19.46396049 6.28892393 19.66716594 2 19 C-1.55425231 16.84874202 -2.3371219 14.36963732 -3.3125 10.5 C-3.98635086 7.35176879 -4.20079189 5.03087578 -3 2 C-2.01 1.34 -1.02 0.68 0 0 Z " fill="#D7D7D7" transform="translate(292,157)" />
<path d="M0 0 C1.32 0 2.64 0 4 0 C4 7.59 4 15.18 4 23 C3.01 23 2.02 23 1 23 C1 17.06 1 11.12 1 5 C0.01 5.495 0.01 5.495 -1 6 C-0.67 4.02 -0.34 2.04 0 0 Z " fill="#E2E2E2" transform="translate(333,153)" />
<path d="M0 0 C0 3.66113117 -1.02529178 6.20003889 -2.3125 9.625 C-2.74175781 10.79289063 -3.17101562 11.96078125 -3.61328125 13.1640625 C-4.29970703 14.56785156 -4.29970703 14.56785156 -5 16 C-5.99 16.33 -6.98 16.66 -8 17 C-8.6708712 15.3767313 -9.33657029 13.75132422 -10 12.125 C-10.37125 11.22007812 -10.7425 10.31515625 -11.125 9.3828125 C-12 7 -12 7 -12 5 C-11.34 5 -10.68 5 -10 5 C-9.67 4.34 -9.34 3.68 -9 3 C-8.34 4.98 -7.68 6.96 -7 9 C-4.94441892 6.17937531 -4.94441892 6.17937531 -4.0625 3.375 C-3.711875 2.59125 -3.36125 1.8075 -3 1 C-2.01 0.67 -1.02 0.34 0 0 Z " fill="#C0C0C0" transform="translate(334,157)" />
<path d="M0 0 C1.98 0.66 3.96 1.32 6 2 C7.23076923 7.41538462 7.23076923 7.41538462 6.0625 10.375 C5.711875 10.91125 5.36125 11.4475 5 12 C2.5625 11.625 2.5625 11.625 0 11 C-1.62651522 7.74696956 -1.11453156 4.60774398 -1 1 C-0.67 0.67 -0.34 0.34 0 0 Z " fill="#D9D9D9" transform="translate(289,105)" />
<path d="M0 0 C1.125 3.75 1.125 3.75 0 6 C1.98 6 3.96 6 6 6 C6 6.33 6 6.66 6 7 C4.02 7 2.04 7 0 7 C-0.66 9.64 -1.32 12.28 -2 15 C-3.32 14.67 -4.64 14.34 -6 14 C-5.38241446 12.0393158 -4.75568655 10.08150937 -4.125 8.125 C-3.77695312 7.03445312 -3.42890625 5.94390625 -3.0703125 4.8203125 C-2 2 -2 2 0 0 Z " fill="#EBEBEB" transform="translate(420,161)" />
<path d="M0 0 C1.32 0 2.64 0 4 0 C5.65 3.63 7.3 7.26 9 11 C7.02 11.99 7.02 11.99 5 13 C4.15930585 11.39967863 3.32768495 9.79458829 2.5 8.1875 C1.80390625 6.84751953 1.80390625 6.84751953 1.09375 5.48046875 C0 3 0 3 0 0 Z " fill="#BEBEBE" transform="translate(438,153)" />
<path d="M0 0 C1.32 0 2.64 0 4 0 C4.33 1.98 4.66 3.96 5 6 C4.34 6 3.68 6 3 6 C3 5.34 3 4.68 3 4 C2.34 4 1.68 4 1 4 C0.67 6.31 0.34 8.62 0 11 C-0.99 10.34 -1.98 9.68 -3 9 C-2.01 6.03 -1.02 3.06 0 0 Z " fill="#D4D4D4" transform="translate(422,153)" />
<path d="M0 0 C1.32 0.33 2.64 0.66 4 1 C4.33 3.31 4.66 5.62 5 8 C4.34 8 3.68 8 3 8 C2.67 6.68 2.34 5.36 2 4 C1.67 9.61 1.34 15.22 1 21 C0.67 21 0.34 21 0 21 C0 14.07 0 7.14 0 0 Z " fill="#F2F2F2" transform="translate(319,154)" />
<path d="M0 0 C1.32 0.33 2.64 0.66 4 1 C2.35 4.3 0.7 7.6 -1 11 C-1.99 10.67 -2.98 10.34 -4 10 C-3.52449439 8.51965236 -3.04448784 7.04074979 -2.5625 5.5625 C-2.29566406 4.73878906 -2.02882813 3.91507813 -1.75390625 3.06640625 C-1 1 -1 1 0 0 Z " fill="#C3C3C3" transform="translate(451,153)" />
<path d="M0 0 C2.97 0.99 5.94 1.98 9 3 C8.01 4.485 8.01 4.485 7 6 C3.625 5.6875 3.625 5.6875 0 5 C-0.66 4.01 -1.32 3.02 -2 2 C-1.34 1.34 -0.68 0.68 0 0 Z " fill="#CDCDCD" transform="translate(372,170)" />
<path d="M0 0 C2.31 0.66 4.62 1.32 7 2 C7 3.32 7 4.64 7 6 C4.36 5.34 1.72 4.68 -1 4 C-0.67 2.68 -0.34 1.36 0 0 Z " fill="#C2C2C2" transform="translate(377,152)" />
<path d="M0 0 C2.15546298 3.23319447 2.68074747 5.16896958 3 9 C2.01 10.485 2.01 10.485 1 12 C0.01 8.7 -0.98 5.4 -2 2 C-1.34 2 -0.68 2 0 2 C0 1.34 0 0.68 0 0 Z " fill="#B8B8B8" transform="translate(324,160)" />
<path d="M0 0 C-0.33 2.64 -0.66 5.28 -1 8 C-2.32 7.67 -3.64 7.34 -5 7 C-4.39816251 4.97954558 -3.72693904 2.97888961 -3 1 C-1 0 -1 0 0 0 Z " fill="#D1D1D1" transform="translate(419,168)" />
<path d="M0 0 C0.99 0 1.98 0 3 0 C3 2.31 3 4.62 3 7 C2.01 7.495 2.01 7.495 1 8 C1 6.68 1 5.36 1 4 C0.01 4.495 0.01 4.495 -1 5 C-0.67 3.35 -0.34 1.7 0 0 Z " fill="#F3F3F3" transform="translate(333,154)" />
<path d="M0 0 C0.66 0.33 1.32 0.66 2 1 C-0.64 3.64 -3.28 6.28 -6 9 C-6.66 8.67 -7.32 8.34 -8 8 C-3.375 2.25 -3.375 2.25 0 0 Z " fill="#C5C5C5" transform="translate(322,117)" />
<path d="M0 0 C0.33 0 0.66 0 1 0 C0.67 2.97 0.34 5.94 0 9 C-0.99 8.34 -1.98 7.68 -3 7 C-1.125 1.125 -1.125 1.125 0 0 Z " fill="#C9C9C9" transform="translate(422,155)" />
<path d="M0 0 C0.625 1.8125 0.625 1.8125 1 4 C0.01 5.485 0.01 5.485 -1 7 C-1.66 7 -2.32 7 -3 7 C-3.1875 4.625 -3.1875 4.625 -3 2 C-2.01 1.34 -1.02 0.68 0 0 Z " fill="#D4D4D4" transform="translate(329,167)" />
<path d="M0 0 C0.99 0 1.98 0 3 0 C3.33 1.65 3.66 3.3 4 5 C2.68 5 1.36 5 0 5 C0 3.35 0 1.7 0 0 Z " fill="#C2C2C2" transform="translate(429,171)" />
<path d="M0 0 C0.33 0 0.66 0 1 0 C1 1.98 1 3.96 1 6 C0.67 6 0.34 6 0 6 C0 4.02 0 2.04 0 0 Z " fill="#8C8C8C" transform="translate(159,134)" />
<path d="M0 0 C0.33 0 0.66 0 1 0 C1 1.65 1 3.3 1 5 C0.67 5 0.34 5 0 5 C0 3.35 0 1.7 0 0 Z " fill="#D6D6D6" transform="translate(160,128)" />
<path d="M0 0 C3 1 3 1 3 1 Z " fill="#AAAAAA" transform="translate(161,141)" />
<path d="M0 0 C2 1 2 1 2 1 Z " fill="#8B8B8B" transform="translate(171,126)" />
<path d="M0 0 C2 1 2 1 2 1 Z " fill="#A5A5A5" transform="translate(173,125)" />
<path d="M0 0 C2 1 2 1 2 1 Z " fill="#A6A6A6" transform="translate(175,124)" />
<path d="M0 0 C2 1 2 1 2 1 Z " fill="#9C9C9C" transform="translate(177,123)" />
<path d="" fill="#7A7A7A" transform="translate(0,0)" />
</svg>